<svg width="24" height="24" viewBox="0 0 24 24" fill="none" xmlns="http://www.w3.org/2000/svg">
<rect width="24" height="24" rx="12" fill="#552927"/>
<path d="M19.4667 17.3501H18.4V12.5501L18.556 12.7061C18.6563 12.8062 18.7922 12.8623 18.9338 12.8622C19.0755 12.8621 19.2113 12.8057 19.3113 12.7054C19.4114 12.6052 19.4676 12.4693 19.4674 12.3276C19.4673 12.186 19.4109 12.0502 19.3107 11.9501L12.754 5.39542C12.554 5.19554 12.2828 5.08325 12 5.08325C11.7172 5.08325 11.446 5.19554 11.246 5.39542L4.68933 11.9501C4.58935 12.0502 4.53321 12.1859 4.53327 12.3273C4.53334 12.4688 4.58959 12.6044 4.68967 12.7044C4.78974 12.8044 4.92544 12.8605 5.0669 12.8605C5.20837 12.8604 5.34401 12.8042 5.444 12.7041L5.6 12.5501V17.3501H4.53333C4.39188 17.3501 4.25623 17.4063 4.15621 17.5063C4.05619 17.6063 4 17.742 4 17.8834C4 18.0249 4.05619 18.1605 4.15621 18.2605C4.25623 18.3606 4.39188 18.4168 4.53333 18.4168H19.4667C19.6081 18.4168 19.7438 18.3606 19.8438 18.2605C19.9438 18.1605 20 18.0249 20 17.8834C20 17.742 19.9438 17.6063 19.8438 17.5063C19.7438 17.4063 19.6081 17.3501 19.4667 17.3501ZM13.6 17.3501H10.4V14.1501C10.4 14.0794 10.4281 14.0115 10.4781 13.9615C10.5281 13.9115 10.5959 13.8834 10.6667 13.8834H13.3333C13.4041 13.8834 13.4719 13.9115 13.5219 13.9615C13.5719 14.0115 13.6 14.0794 13.6 14.1501V17.3501Z" fill="#D44F49"/>
</svg>
