<svg width="24" height="24" viewBox="0 0 24 24" fill="none" xmlns="http://www.w3.org/2000/svg">
<rect width="24" height="24" rx="12" fill="#273655"/>
<path d="M18.9831 17.4991H18V10.4991C18 10.2339 17.8946 9.97955 17.7071 9.79201C17.5196 9.60448 17.2652 9.49912 17 9.49912H14.25C14.1837 9.49912 14.1201 9.52546 14.0732 9.57234C14.0263 9.61923 14 9.68281 14 9.74912V17.4991H13V6.52474C13.0017 6.36898 12.9679 6.21488 12.9012 6.07412C12.8344 5.93335 12.7366 5.8096 12.615 5.71224C12.4493 5.58302 12.247 5.5093 12.037 5.50156C11.8269 5.49381 11.6198 5.55244 11.445 5.66912L6.445 8.99912C6.30784 9.09063 6.19543 9.21464 6.11779 9.36011C6.04015 9.50557 5.99969 9.66798 6 9.83287V17.4991H5.01687C4.88767 17.4972 4.76253 17.5443 4.66663 17.6309C4.57074 17.7175 4.5112 17.8373 4.5 17.966C4.49546 18.0344 4.50503 18.103 4.52811 18.1675C4.5512 18.2321 4.58731 18.2912 4.6342 18.3412C4.68109 18.3912 4.73776 18.431 4.80069 18.4582C4.86361 18.4853 4.93146 18.4993 5 18.4991H19C19.0685 18.4993 19.1364 18.4853 19.1993 18.4582C19.2622 18.431 19.3189 18.3912 19.3658 18.3412C19.4127 18.2912 19.4488 18.2321 19.4719 18.1675C19.495 18.103 19.5045 18.0344 19.5 17.966C19.4888 17.8373 19.4293 17.7175 19.3334 17.6309C19.2375 17.5443 19.1123 17.4972 18.9831 17.4991ZM8.75 15.9991C8.75015 16.0677 8.73621 16.1355 8.70903 16.1984C8.68186 16.2614 8.64204 16.318 8.59204 16.3649C8.54205 16.4118 8.48294 16.4479 8.4184 16.471C8.35386 16.4941 8.28527 16.5037 8.21688 16.4991C8.08803 16.4879 7.96822 16.4283 7.88159 16.3323C7.79495 16.2362 7.74793 16.1109 7.75 15.9816V15.016C7.74824 14.8868 7.79538 14.7618 7.88197 14.6659C7.96856 14.57 8.08819 14.5105 8.21688 14.4991C8.28527 14.4946 8.35386 14.5041 8.4184 14.5272C8.48294 14.5503 8.54205 14.5864 8.59204 14.6333C8.64204 14.6802 8.68186 14.7369 8.70903 14.7998C8.73621 14.8627 8.75015 14.9306 8.75 14.9991V15.9991ZM8.75 12.4991C8.75015 12.5677 8.73621 12.6355 8.70903 12.6984C8.68186 12.7614 8.64204 12.818 8.59204 12.8649C8.54205 12.9118 8.48294 12.9479 8.4184 12.971C8.35386 12.9941 8.28527 13.0037 8.21688 12.9991C8.08808 12.9878 7.96836 12.9281 7.88176 12.8321C7.79515 12.7361 7.74808 12.6109 7.75 12.4816V11.516C7.74824 11.3868 7.79538 11.2618 7.88197 11.1659C7.96856 11.07 8.08819 11.0105 8.21688 10.9991C8.28527 10.9946 8.35386 11.0041 8.4184 11.0272C8.48294 11.0503 8.54205 11.0864 8.59204 11.1333C8.64204 11.1802 8.68186 11.2369 8.70903 11.2998C8.73621 11.3627 8.75015 11.4306 8.75 11.4991V12.4991ZM11.25 15.9991C11.2502 16.0677 11.2362 16.1355 11.209 16.1984C11.1819 16.2614 11.142 16.318 11.092 16.3649C11.042 16.4118 10.9829 16.4479 10.9184 16.471C10.8539 16.4941 10.7853 16.5037 10.7169 16.4991C10.5882 16.4879 10.4686 16.4285 10.382 16.3327C10.2954 16.237 10.2483 16.112 10.25 15.9829V15.016C10.2484 14.8869 10.2956 14.762 10.3822 14.6663C10.4688 14.5706 10.5883 14.5111 10.7169 14.4997C10.7853 14.4952 10.8539 14.5048 10.9184 14.5279C10.9829 14.5509 11.042 14.5871 11.092 14.6339C11.142 14.6808 11.1819 14.7375 11.209 14.8004C11.2362 14.8634 11.2502 14.9312 11.25 14.9997V15.9991ZM11.25 12.4991C11.2502 12.5677 11.2362 12.6355 11.209 12.6984C11.1819 12.7614 11.142 12.818 11.092 12.8649C11.042 12.9118 10.9829 12.9479 10.9184 12.971C10.8539 12.9941 10.7853 13.0037 10.7169 12.9991C10.5883 12.9878 10.4688 12.9283 10.3822 12.8326C10.2956 12.7368 10.2484 12.6119 10.25 12.4829V11.516C10.2484 11.3869 10.2956 11.262 10.3822 11.1663C10.4688 11.0706 10.5883 11.0111 10.7169 10.9997C10.7853 10.9952 10.8539 11.0048 10.9184 11.0279C10.9829 11.0509 11.042 11.0871 11.092 11.1339C11.142 11.1808 11.1819 11.2375 11.209 11.3004C11.2362 11.3634 11.2502 11.4312 11.25 11.4997V12.4991Z" fill="#447AE4"/>
</svg>
