<svg width="24" height="24" viewBox="0 0 24 24" fill="none" xmlns="http://www.w3.org/2000/svg">
<rect width="24" height="24" rx="12" fill="#1E3442"/>
<path d="M12.0001 5.5C10.3662 5.5 9.04175 6.82448 9.04175 8.4583C9.04175 10.0921 10.3662 11.4166 12.0001 11.4166C13.6339 11.4166 14.9584 10.0921 14.9584 8.4583C14.9584 6.82448 13.6339 5.5 12.0001 5.5Z" fill="#1EA1F1"/>
<path d="M8.84453 12.9944C7.21071 12.9944 5.88623 14.3188 5.88623 15.9527V16.8901C5.88623 17.4843 6.31687 17.9909 6.90331 18.0867C10.2788 18.6378 13.7213 18.6378 17.0968 18.0867C17.6832 17.9909 18.1139 17.4843 18.1139 16.8901V15.9527C18.1139 14.3188 16.7894 12.9944 15.1556 12.9944H14.8867C14.7411 12.9944 14.5965 13.0174 14.4581 13.0626L13.7754 13.2855C12.6218 13.6622 11.3783 13.6622 10.2247 13.2855L9.54196 13.0626C9.4036 13.0174 9.25898 12.9944 9.11344 12.9944H8.84453Z" fill="#1EA1F1"/>
</svg>
