<svg width="24" height="24" viewBox="0 0 24 24" fill="none" xmlns="http://www.w3.org/2000/svg">
<rect width="24" height="24" rx="12" fill="#602B3F"/>
<path fill-rule="evenodd" clip-rule="evenodd" d="M12.2314 6.05824C12.0728 6.01325 11.9056 6.01329 11.7471 6.05841C11.4095 6.15449 11.0686 6.24348 10.7267 6.33276C9.20057 6.73122 7.52024 7.16996 6.08283 8.34292L5.40512 8.89595C4.86469 9.33695 4.86498 10.2006 5.40587 10.6412L6.07262 11.1842C6.5652 11.5854 7.07857 11.8993 7.60465 12.1552V15.1694C7.60465 15.9074 8.05735 16.5698 8.7449 16.8378L11.3496 17.8533C11.7679 18.0163 12.2321 18.0163 12.6504 17.8533L15.2551 16.8378C15.9426 16.5698 16.3953 15.9074 16.3953 15.1694V12.1606C16.9179 11.906 17.4279 11.5938 17.9172 11.1945L18.0233 11.108V14.3269C18.0233 14.5966 18.2419 14.8152 18.5116 14.8152C18.7813 14.8152 19 14.5966 19 14.3269V9.76872C18.9999 9.44261 18.8646 9.11655 18.5941 8.89627L17.9274 8.35321C16.4795 7.17394 14.7286 6.71728 13.2497 6.33158C12.9085 6.24258 12.5684 6.15388 12.2314 6.05824ZM9.59014 12.2511C9.3428 12.1435 9.05508 12.2568 8.94751 12.5042C8.83993 12.7515 8.95323 13.0392 9.20057 13.1468C10.0327 13.5087 10.894 13.8048 11.7767 14.0314C11.9305 14.0708 12.0919 14.0708 12.2457 14.0312C13.126 13.8046 13.9848 13.5085 14.8142 13.1466C15.0614 13.0387 15.1744 12.7508 15.0665 12.5036C14.9587 12.2564 14.6708 12.1435 14.4236 12.2513C13.6444 12.5914 12.8377 12.8697 12.0109 13.0831C11.1815 12.8697 10.3721 12.5912 9.59014 12.2511Z" fill="#F25890"/>
</svg>
