<svg width="16" height="16" viewBox="0 0 16 16" fill="none" xmlns="http://www.w3.org/2000/svg">
<g clip-path="url(#clip0_800_4774)">
<path d="M15.4511 8.03173L14.1765 5.5186L13.4405 4.06904C13.3479 3.88892 13.1918 3.68993 13.0117 3.51152L7.48279 10.9343L10.044 15.9828C10.2738 15.94 10.4917 15.8233 10.6289 15.638L12.986 12.473L15.343 9.30974C15.5917 8.97694 15.6398 8.40055 15.4528 8.03002L15.4511 8.03173Z" fill="#D7DDE8"/>
<path d="M13.0254 9.08845C13.42 8.55838 13.5864 7.8276 13.3977 7.45363C13.209 7.08138 12.7355 7.2066 12.341 7.73668C11.9481 8.26504 11.78 8.99925 11.9687 9.3715C12.1591 9.74547 12.6326 9.61681 13.0254 9.08845Z" fill="black"/>
<path d="M10.9326 11.9001C11.3271 11.37 11.4935 10.6392 11.3048 10.2652C11.1161 9.89299 10.6427 10.0182 10.2481 10.5483C9.85357 11.0767 9.68717 11.8109 9.87587 12.1831C10.0646 12.5571 10.5397 12.4284 10.9326 11.9001Z" fill="black"/>
<path d="M7.48109 10.9343L1.28116e-05 7.40732C-0.00513354 7.60974 0.0291755 7.81045 0.111517 7.9717L1.11677 9.95305L2.12202 11.9344C2.31072 12.3049 2.77218 12.7544 3.14786 12.9311L9.49331 15.9228C9.66143 16.0017 9.85699 16.0172 10.044 15.9829L7.4828 10.9343H7.48109Z" fill="#A9B2C2"/>
<path d="M7.20832 14.0238C7.7504 14.2794 8.03517 14.1833 7.84647 13.8111C7.65777 13.4371 7.06594 12.9293 6.52214 12.6737C5.98177 12.4181 5.69529 12.5125 5.88399 12.8865C6.07269 13.2587 6.66624 13.7699 7.20832 14.0238Z" fill="black"/>
<path d="M4.3332 12.6686C4.87528 12.9242 5.16005 12.8281 4.97135 12.4559C4.78265 12.0819 4.19082 11.5741 3.64702 11.3185C3.10665 11.0629 2.81846 11.1573 3.00887 11.5313C3.19757 11.9035 3.79112 12.4147 4.3332 12.6686Z" fill="black"/>
<path d="M6.29572 12.2243C6.8378 12.4799 7.12257 12.3855 6.93387 12.0116C6.74517 11.6376 6.15334 11.1298 5.61125 10.8742C5.07089 10.6186 4.78269 10.713 4.97311 11.087C5.16181 11.4609 5.75535 11.9704 6.29743 12.2243" fill="black"/>
<path d="M3.4206 10.8691C3.96268 11.1247 4.24916 11.0303 4.05875 10.6564C3.86833 10.2824 3.27822 9.77463 2.73442 9.51903C2.19405 9.26343 1.90757 9.35778 2.09627 9.73174C2.28497 10.1057 2.87852 10.6152 3.41889 10.8691" fill="black"/>
<path d="M7.48108 10.9343L13.01 3.51153C12.8213 3.32454 12.6068 3.16329 12.413 3.07237L6.91498 0.478611L6.07098 0.0806265C5.69529 -0.0960649 5.18409 0.0308784 4.93535 0.363676L2.57832 3.52696L0.221293 6.69197C0.0806261 6.87895 0.0068618 7.14485 0 7.40731L7.48108 10.936V10.9343Z" fill="white"/>
<path d="M7.1483 4.38813C6.60622 4.13252 5.84799 4.35382 5.45344 4.88389C5.0606 5.41225 5.17725 6.0504 5.72105 6.306C6.26142 6.5616 7.02307 6.33859 7.41591 5.81023C7.81047 5.28016 7.69039 4.64373 7.15002 4.38813" fill="#DC1B60"/>
</g>
<defs>
<clipPath id="clip0_800_4774">
<rect width="15.5643" height="16" fill="white"/>
</clipPath>
</defs>
</svg>
